<svg width="30" height="31" viewBox="0 0 30 31" fill="none" xmlns="http://www.w3.org/2000/svg">
<path d="M7.27352 18.4316L6.3414 22.092L2.93453 22.1679C1.91638 20.1813 1.33887 17.9085 1.33887 15.4932C1.33887 13.1576 1.87883 10.9551 2.83595 9.01575H2.83668L5.86975 9.6007L7.19841 12.7722C6.92032 13.625 6.76876 14.5405 6.76876 15.4932C6.76886 16.5271 6.94689 17.5177 7.27352 18.4316Z" fill="#FBBB00"/>
<path d="M27.8833 12.8619C28.0371 13.714 28.1173 14.5939 28.1173 15.4931C28.1173 16.5015 28.0165 17.4851 27.8245 18.4339C27.1727 21.6626 25.4696 24.4818 23.1104 26.4769L23.1096 26.4761L19.2893 26.2711L18.7486 22.7204C20.3141 21.7547 21.5376 20.2432 22.182 18.4339H15.0225V12.8619H22.2865H27.8833Z" fill="#518EF8"/>
<path d="M23.1096 26.4761L23.1103 26.4769C20.8158 28.417 17.901 29.5779 14.7281 29.5779C9.62916 29.5779 5.19603 26.5798 2.93457 22.1679L7.27355 18.4316C8.40426 21.6061 11.3153 23.8659 14.7281 23.8659C16.195 23.8659 17.5693 23.4487 18.7485 22.7205L23.1096 26.4761Z" fill="#28B446"/>
<path d="M23.2743 4.65101L18.9368 8.38653C17.7163 7.58403 16.2737 7.12045 14.728 7.12045C11.238 7.12045 8.27252 9.48387 7.19846 12.7721L2.83667 9.01572H2.83594C5.06429 4.49624 9.55333 1.40845 14.728 1.40845C17.9767 1.40845 20.9555 2.62578 23.2743 4.65101Z" fill="#F14336"/>
</svg>
