<svg width="37" height="37" viewBox="0 0 37 37" fill="none" xmlns="http://www.w3.org/2000/svg">
<path fill-rule="evenodd" clip-rule="evenodd" d="M3.96169 3.96266C3.08301 4.84134 3.08301 6.25556 3.08301 9.08399V27.9173C3.08301 30.7457 3.08301 32.16 3.96169 33.0386C4.84037 33.9173 6.25458 33.9173 9.08301 33.9173H27.9163C30.7448 33.9173 32.159 33.9173 33.0377 33.0386C33.9163 32.16 33.9163 30.7457 33.9163 27.9173V9.08398C33.9163 6.25556 33.9163 4.84134 33.0377 3.96266C32.159 3.08398 30.7448 3.08398 27.9163 3.08398H9.08301C6.25458 3.08398 4.84037 3.08398 3.96169 3.96266ZM27.0401 14.4304C27.3464 13.9708 27.2222 13.35 26.7627 13.0436C26.3032 12.7372 25.6823 12.8614 25.376 13.321L20.1651 21.1372L18.6231 18.053C17.9363 16.6795 16.0219 16.5603 15.1701 17.8381L9.95929 25.6543C9.65294 26.1138 9.77712 26.7347 10.2366 27.041C10.6962 27.3474 11.317 27.2232 11.6234 26.7637L16.8342 18.9475L18.3763 22.0316C19.063 23.4051 20.9774 23.5243 21.8292 22.2466L27.0401 14.4304Z" fill="black"/>
</svg>
