<svg width="37" height="37" viewBox="0 0 37 37" fill="none" xmlns="http://www.w3.org/2000/svg">
<path fill-rule="evenodd" clip-rule="evenodd" d="M3.08301 15.4164C3.08287 14.308 3.32177 13.2126 3.78342 12.2049C4.24506 11.1972 4.9186 10.3009 5.75808 9.5772C6.59757 8.85346 7.58327 8.31927 8.64795 8.01107C9.71263 7.70287 10.8313 7.6279 11.9276 7.79128C12.3938 6.41814 13.2783 5.22551 14.4571 4.38087C15.6358 3.53624 17.0496 3.08203 18.4997 3.08203C19.9498 3.08203 21.3635 3.53624 22.5423 4.38087C23.721 5.22551 24.6056 6.41814 25.0718 7.79128C25.4418 7.73578 25.8205 7.70803 26.208 7.70803C27.9798 7.70687 29.698 8.31614 31.0732 9.43328C32.4485 10.5504 33.3969 12.1072 33.7588 13.8417C34.1208 15.5762 33.8742 17.3823 33.0605 18.9563C32.2468 20.5302 30.9157 21.7758 29.2913 22.4834V26.5934H7.70801V22.4834C6.33302 21.8833 5.16302 20.895 4.34149 19.6397C3.51995 18.3844 3.08258 16.9166 3.08301 15.4164ZM17.0243 21.0743C15.6707 20.0784 13.8747 18.475 13.8747 16.958C13.8747 14.3788 16.4184 13.4168 18.4997 15.4087C20.5809 13.4168 23.1247 14.3788 23.1247 16.958C23.1247 18.4766 21.3286 20.0799 19.975 21.0743C19.3276 21.5476 19.0038 21.785 18.4997 21.785C17.994 21.785 17.6718 21.5476 17.0243 21.0727" fill="black"/>
<path d="M8.61127 33.0133C7.83581 32.2393 7.72635 31.06 7.71094 28.9062H29.2881C29.2727 31.06 29.1632 32.2393 28.3878 33.0133C27.4844 33.9167 26.0321 33.9167 23.1245 33.9167H13.8745C10.9669 33.9167 9.51469 33.9167 8.61127 33.0133Z" fill="black"/>
</svg>
