<svg width="29" height="20" viewBox="0 0 29 20" fill="none" xmlns="http://www.w3.org/2000/svg">
<path fill-rule="evenodd" clip-rule="evenodd" d="M9.2666 11.2674H19.7333V8.73267H9.2666V11.2674Z" fill="#FEFEFE"/>
<path fill-rule="evenodd" clip-rule="evenodd" d="M9.85104 10.6691H19.1494V9.33107H9.85104V10.6691ZM19.7336 11.8657H9.26686C8.94434 11.8657 8.68262 11.598 8.68262 11.2674V8.73274C8.68262 8.40254 8.94434 8.13452 9.26686 8.13452H19.7336C20.0561 8.13452 20.3178 8.40254 20.3178 8.73274V11.2674C20.3178 11.598 20.056 11.8657 19.7336 11.8657Z" fill="#2E2E30"/>
<path fill-rule="evenodd" clip-rule="evenodd" d="M19.8394 19.4017H22.698V0.598145H19.8394V19.4017Z" fill="#829DC5"/>
<path fill-rule="evenodd" clip-rule="evenodd" d="M22.6982 17.4534H25.5568V2.54663H22.6982V17.4534Z" fill="#CDE4F6"/>
<path fill-rule="evenodd" clip-rule="evenodd" d="M25.5571 14.9222H28.4157V5.07755H25.5571V14.9222ZM6.30176 19.4017H9.16042V0.598145H6.30176V19.4017Z" fill="#829DC5"/>
<path fill-rule="evenodd" clip-rule="evenodd" d="M3.44336 17.4534H6.30196V2.54663H3.44336V17.4534Z" fill="#CDE4F6"/>
<path fill-rule="evenodd" clip-rule="evenodd" d="M0.583984 14.9223H3.44265V5.07764H0.583984V14.9223Z" fill="#829DC5"/>
<path opacity="0.3" fill-rule="evenodd" clip-rule="evenodd" d="M6.30176 19.4018H9.16042V17.4534H6.30176V19.4018ZM19.8394 19.4018H22.6981V17.4534H19.8394V19.4018Z" fill="#010202"/>
<path opacity="0.3" fill-rule="evenodd" clip-rule="evenodd" d="M3.44304 17.4538H6.30165V15.5054H3.44304V17.4538ZM22.8043 17.4538H25.6629V15.5054H22.8043V17.4538ZM0.583984 14.9227H3.44265V12.9744H0.583984V14.9227ZM25.6633 14.9227H28.5219V12.9744H25.6633V14.9227Z" fill="#010202"/>
<path fill-rule="evenodd" clip-rule="evenodd" d="M20.4237 18.8035H22.114V1.19649H20.4237V18.8035ZM22.6982 20H19.8396C19.5171 20 19.2554 19.732 19.2554 19.4017V0.598274C19.2554 0.268023 19.5171 0 19.8396 0H22.6982C23.0207 0 23.2824 0.268023 23.2824 0.598215V19.4017C23.2824 19.732 23.0207 20 22.6982 20Z" fill="#2E2E30"/>
<path fill-rule="evenodd" clip-rule="evenodd" d="M23.2821 16.855H24.9728V3.14473H23.2822V16.855H23.2821ZM25.557 18.0515H22.698C22.3755 18.0515 22.1138 17.7835 22.1138 17.4533V2.54652C22.1138 2.21627 22.3755 1.94824 22.698 1.94824H25.557C25.8795 1.94824 26.1411 2.21627 26.1411 2.54652V17.4533C26.1411 17.7835 25.8794 18.0515 25.557 18.0515Z" fill="#2E2E30"/>
<path fill-rule="evenodd" clip-rule="evenodd" d="M26.1414 14.3245H27.8317V5.6759H26.1414V14.3245ZM28.4159 15.5209H25.5573C25.2348 15.5209 24.9731 15.2529 24.9731 14.9227V5.07762C24.9731 4.74743 25.2348 4.47941 25.5573 4.47941H28.4159C28.7384 4.47941 29.0001 4.74743 29.0001 5.07762V14.9227C29.0001 15.2529 28.7384 15.5209 28.4159 15.5209ZM6.88614 18.8035H8.57683V1.19649H6.88614V18.8035ZM9.16062 20H6.30201C5.9795 20 5.71777 19.732 5.71777 19.4017V0.598274C5.71777 0.268023 5.9795 0 6.30196 0H9.16056C9.48347 0 9.7448 0.268023 9.7448 0.598215V19.4017C9.7448 19.732 9.48347 20 9.16062 20Z" fill="#2E2E30"/>
<path fill-rule="evenodd" clip-rule="evenodd" d="M4.02726 16.855H5.71789V3.14473H4.02726V16.855ZM6.30207 18.0515H3.44307C3.12056 18.0515 2.85889 17.7835 2.85889 17.4533V2.54652C2.85889 2.21627 3.12061 1.94824 3.44307 1.94824H6.30207C6.62453 1.94824 6.88626 2.21627 6.88626 2.54652V17.4533C6.88626 17.7835 6.62453 18.0515 6.30207 18.0515Z" fill="#2E2E30"/>
<path fill-rule="evenodd" clip-rule="evenodd" d="M1.16837 14.3245H2.85866V5.67598H1.16837V14.3245ZM3.44285 15.521H0.584241C0.261727 15.521 0 15.253 0 14.9228V5.07771C0 4.74751 0.261727 4.47949 0.584184 4.47949H3.44279C3.7653 4.47949 4.02703 4.74751 4.02703 5.07771V14.9228C4.02703 15.253 3.7653 15.521 3.44285 15.521Z" fill="#2E2E30"/>
</svg>
