<svg width="40" height="40" viewBox="0 0 40 40" fill="none" xmlns="http://www.w3.org/2000/svg">
<path d="M21.0481 3.6872L36.0481 18.6872C37.0981 19.7372 36.3548 21.5322 34.8698 21.5322H33.2031V31.5322C33.2031 32.8583 32.6763 34.13 31.7386 35.0677C30.801 36.0054 29.5292 36.5322 28.2031 36.5322H26.5364V24.8655C26.5365 23.5902 26.0492 22.363 25.1743 21.4351C24.2994 20.5072 23.1029 19.9487 21.8298 19.8739L21.5364 19.8655H18.2031C16.877 19.8655 15.6053 20.3923 14.6676 21.33C13.7299 22.2677 13.2031 23.5394 13.2031 24.8655V36.5322H11.5364C10.2104 36.5322 8.93859 36.0054 8.00091 35.0677C7.06323 34.13 6.53644 32.8583 6.53644 31.5322V21.5322H4.86978C3.38644 21.5322 2.64144 19.7372 3.69144 18.6872L18.6914 3.6872C19.004 3.37474 19.4278 3.19922 19.8698 3.19922C20.3117 3.19922 20.7356 3.37474 21.0481 3.6872ZM21.5364 23.1989C21.9785 23.1989 22.4024 23.3745 22.715 23.687C23.0275 23.9996 23.2031 24.4235 23.2031 24.8655V36.5322H16.5364V24.8655C16.5365 24.4573 16.6864 24.0633 16.9576 23.7582C17.2289 23.4532 17.6027 23.2583 18.0081 23.2105L18.2031 23.1989H21.5364Z" fill="black"/>
</svg>
