<svg width="25" height="31" viewBox="0 0 25 31" fill="none" xmlns="http://www.w3.org/2000/svg">
<path d="M6.68766 30.4064C6.1069 29.9999 5.59219 29.4977 5.1633 28.919C4.69153 28.3218 4.25441 27.6951 3.85434 27.0424C2.9155 25.5956 2.17923 24.0143 1.66814 22.347C1.05416 20.4104 0.756836 18.5541 0.756836 16.7385C0.756836 14.7109 1.17383 12.9408 1.98939 11.4534C2.59396 10.2909 3.48284 9.31941 4.56405 8.63948C5.61187 7.95485 6.81583 7.58019 8.04908 7.55496C8.4808 7.55496 8.94566 7.62081 9.43905 7.74669C9.79344 7.85224 10.2252 8.01879 10.7526 8.22601C11.4237 8.49811 11.7928 8.66466 11.918 8.70533C12.311 8.85639 12.6415 8.92223 12.9011 8.92223C13.0981 8.92223 13.3761 8.85639 13.6918 8.75568C13.8694 8.68984 14.2045 8.57364 14.6841 8.3577C15.1591 8.17566 15.5328 8.01976 15.8301 7.90356C16.2858 7.76218 16.7267 7.63146 17.1198 7.56561C17.5857 7.48834 18.0586 7.46786 18.529 7.50461C19.3443 7.56066 20.1472 7.74239 20.9122 8.04397C22.1632 8.57364 23.1748 9.40058 23.9278 10.5761C23.6096 10.7825 23.3109 11.0205 23.0358 11.2869C22.4372 11.8452 21.9272 12.5006 21.5253 13.2284C21 14.2229 20.7276 15.3432 20.7346 16.481C20.7539 17.8782 21.0945 19.109 21.7655 20.1732C22.2589 20.9619 22.9001 21.6363 23.6498 22.1553C24.0337 22.4274 24.3641 22.6143 24.6808 22.7402C24.5326 23.2243 24.3743 23.693 24.1874 24.1578C23.7636 25.2001 23.25 26.1994 22.6529 27.1431C22.1209 27.9556 21.7039 28.5608 21.3872 28.9636C20.8938 29.5785 20.4188 30.0481 19.9393 30.3754C19.4118 30.7434 18.7886 30.9399 18.1553 30.9399C17.7264 30.9573 17.2976 30.9027 16.885 30.7782C16.5306 30.6523 16.1799 30.5158 15.8347 30.3599C15.4759 30.1865 15.1058 30.0399 14.7274 29.9213C13.7918 29.6685 12.811 29.6668 11.8747 29.9164C11.4909 30.0326 11.1217 30.1682 10.7572 30.3347C10.2445 30.5613 9.9039 30.7134 9.70692 30.7782C9.31386 30.8993 8.90607 30.9748 8.49369 31C7.85578 31 7.26113 30.8082 6.67201 30.4199L6.68766 30.4064ZM15.1011 6.57115C14.2671 7.0098 13.4709 7.19668 12.6801 7.13568C12.5559 6.29808 12.6801 5.44111 13.0106 4.50281C13.2919 3.70788 13.7077 2.97304 14.2376 2.33377C14.7973 1.66081 15.4765 1.10921 16.237 0.709894C17.047 0.271244 17.8193 0.0340051 18.5576 -0.000854492C18.6533 0.876445 18.5576 1.73922 18.2511 2.67171C17.9674 3.49603 17.5524 4.26357 17.024 4.94146C16.4847 5.61535 15.8227 6.16909 15.0771 6.57018L15.1011 6.57115Z" fill="black"/>
</svg>
