<svg width="30" height="35" viewBox="0 0 30 35" fill="none" xmlns="http://www.w3.org/2000/svg">
<path d="M7.81349 9.25187C7.81349 9.34341 7.81349 9.44148 7.78079 9.53302C7.7481 9.62456 7.78079 9.57225 7.78079 9.59186C7.78079 9.72263 7.78079 9.84686 7.73503 9.97763C7.70233 10.2588 7.66964 10.5399 7.64349 10.8276V11.0695L7.60426 11.3703C7.449 11.444 7.2792 11.482 7.10734 11.4815C6.90968 11.4828 6.71455 11.437 6.53816 11.3478C6.36176 11.2586 6.2092 11.1286 6.09314 10.9686C5.97708 10.8086 5.90087 10.6232 5.87085 10.4279C5.84084 10.2325 5.85787 10.0328 5.92054 9.84531C5.98321 9.65785 6.08971 9.48804 6.23119 9.35001C6.37267 9.21197 6.54505 9.10969 6.734 9.05165C6.92295 8.99362 7.12302 8.98151 7.3176 9.01633C7.51217 9.05115 7.69562 9.1319 7.85272 9.25187H7.81349ZM21.433 11.4618H20.6876L19.4453 16.4114L14.7376 15.2476C14.6682 15.2384 14.5979 15.2384 14.5284 15.2476V6.55151C15.9793 6.73212 17.4447 6.76716 18.9026 6.65613C19.0837 6.64804 19.2649 6.67014 19.4387 6.72151H19.4976C19.686 6.78031 19.8629 6.87098 20.0207 6.98959L20.1187 7.06805C20.3065 7.23045 20.4574 7.43118 20.5611 7.65674C20.6649 7.88229 20.7191 8.12745 20.7203 8.37572V9.02956C20.7203 9.02956 20.8772 8.82687 21.1191 8.49341C21.1191 8.74841 21.178 9.00995 21.2106 9.27802C21.2891 9.93186 21.3741 10.6707 21.4526 11.3965L21.433 11.4618Z" fill="#E5989B"/>
<path d="M14.4957 6.52541V15.2215C14.4263 15.2115 14.3559 15.2115 14.2865 15.2215L9.53962 16.4049L8.30386 11.4619H7.54541V11.3573L7.58464 11.0565V10.8146C7.58464 10.5269 7.64349 10.2458 7.67618 9.96461C7.67618 9.83384 7.70887 9.70961 7.72195 9.57884V9.52C7.72195 9.50038 7.72195 9.33038 7.75464 9.23885L7.8331 8.53924V8.42155C7.93698 7.56162 8.3522 6.76951 9.00032 6.19488C9.64844 5.62024 10.4846 5.30288 11.3508 5.30273H12.0046C12.7955 5.7862 13.6294 6.1955 14.4957 6.52541Z" fill="#FFCDB2"/>
<path d="M23.1598 10.2391C23.1563 10.5635 23.0255 10.8735 22.7954 11.1022C22.5654 11.3309 22.2546 11.4601 21.9302 11.4618C21.7562 11.4616 21.5844 11.4236 21.4266 11.3506C21.3481 10.6249 21.2631 9.90566 21.1846 9.23221C21.3681 9.09902 21.5848 9.0189 21.8109 9.00061C22.037 8.98232 22.2638 9.02657 22.4664 9.12852C22.669 9.23047 22.8396 9.38618 22.9596 9.57861C23.0796 9.77104 23.1443 9.99276 23.1467 10.2195L23.1598 10.2391Z" fill="#E5989B"/>
<path d="M21.0862 8.4672C20.8443 8.80066 20.6874 9.00335 20.6874 9.00335V8.34951C20.6862 8.10124 20.632 7.85608 20.5282 7.63052C20.4245 7.40497 20.2736 7.20424 20.0858 7.04183L19.9878 6.96337C19.83 6.84477 19.6531 6.7541 19.4647 6.6953H19.4058C19.232 6.64392 19.0508 6.62183 18.8697 6.62991C17.4118 6.74095 15.9464 6.7059 14.4955 6.5253C13.6499 6.1963 12.8358 5.79145 12.0632 5.3157H12.0175C12.0175 5.3157 12.1286 0.954592 13.2532 0.359599C15.6005 -0.869619 22.4723 1.52343 23.1589 4.0734C23.44 5.06724 21.8512 7.41452 21.0862 8.4672ZM12.0175 5.28955H11.429C10.5628 5.28969 9.72669 5.60705 9.07857 6.18169C8.43045 6.75632 8.01522 7.54843 7.91135 8.40836V8.52605C7.21174 7.7349 5.84521 6.08723 5.84521 5.25685C5.84521 4.42648 7.45366 2.8638 8.32326 2.7788C9.41518 2.70034 12.0175 5.28955 12.0175 5.28955Z" fill="#2B2D42"/>
<path d="M16.3198 17.6668H12.6648C12.63 17.6677 12.596 17.6566 12.5685 17.6353C12.541 17.6139 12.5217 17.5837 12.514 17.5498C12.5063 17.5158 12.5106 17.4803 12.5262 17.4491C12.5417 17.418 12.5676 17.3932 12.5994 17.3791L14.0836 16.6206C14.2029 16.5628 14.3336 16.5327 14.4661 16.5327C14.5986 16.5327 14.7294 16.5628 14.8486 16.6206L16.3655 17.3791C16.3962 17.3923 16.4215 17.4154 16.4375 17.4447C16.4536 17.4739 16.4595 17.5077 16.4542 17.5407C16.449 17.5736 16.4329 17.6039 16.4086 17.6267C16.3842 17.6496 16.353 17.6636 16.3198 17.6668Z" fill="white"/>
<path d="M17.5096 22.8581L14.7373 23.7866C14.6592 23.7961 14.5801 23.7961 14.502 23.7866V19.4974C15.3977 19.4974 16.3 19.4582 17.1173 19.3862L17.8758 21.6812L18.0065 21.9231C18.0367 22.0171 18.0477 22.1162 18.0389 22.2145C18.0301 22.3128 18.0017 22.4083 17.9554 22.4955C17.9091 22.5827 17.8458 22.6596 17.7692 22.7219C17.6926 22.7842 17.6044 22.8305 17.5096 22.8581Z" fill="#E5989B"/>
<path d="M14.4954 19.5301V23.8193C14.4173 23.8288 14.3382 23.8288 14.2601 23.8193L11.4682 22.8581C11.285 22.7928 11.1346 22.6585 11.0491 22.4838C10.9635 22.3091 10.9497 22.1079 11.0105 21.9231L11.1085 21.6289L11.8474 19.4189C12.6974 19.4909 13.5931 19.5301 14.4954 19.5301Z" fill="#FFCDB2"/>
<path d="M19.164 23.2308L19.0724 23.3158L19.0136 23.3681C18.9482 23.4205 18.8763 23.4793 18.7978 23.5316L18.6605 23.6231L18.2355 23.8585L18.144 23.9043L18.0459 23.9501L17.8563 24.0351L17.6536 24.1201L17.2482 24.2835L17.1436 24.3228L16.8298 24.4339L16.7448 24.4666H16.5682C15.9667 24.6693 15.3979 24.8197 15.0121 24.9177H14.9075L14.659 24.9766H14.3713L14.064 24.8981H13.966C13.796 24.8589 13.5867 24.8001 13.3644 24.7347H13.2271L12.8937 24.6301L12.7237 24.5778L12.3837 24.4666L12.181 24.3947L12.0764 24.362L11.9717 24.3228L11.8671 24.2835C11.3698 24.1072 10.8885 23.8885 10.4287 23.6297L10.3502 23.5774C10.2976 23.5463 10.2473 23.5113 10.1998 23.4728L10.056 23.3747L9.95139 23.2831L9.85985 23.1981C9.68471 23.0447 9.57672 22.8288 9.55908 22.5966C9.55908 22.1847 10.4221 21.8316 11.1283 21.6028L11.0302 21.897C10.9701 22.0835 10.9857 22.2861 11.0738 22.4611C11.1619 22.636 11.3154 22.7693 11.501 22.832L14.2798 23.7605C14.4337 23.8041 14.5967 23.8041 14.7506 23.7605L17.5294 22.832C17.7112 22.7719 17.8626 22.6436 17.9516 22.474C18.0407 22.3045 18.0604 22.107 18.0067 21.9232L17.9348 21.7139C18.7324 21.9035 19.4517 22.1978 19.4778 22.6228C19.473 22.7409 19.4424 22.8565 19.3882 22.9615C19.334 23.0666 19.2575 23.1585 19.164 23.2308Z" fill="#DC2F02"/>
<path d="M27.8665 33.8884L14.5935 34.9999H14.3909L1.11793 33.895C0.937842 33.8798 0.763363 33.8248 0.607049 33.7341C0.450736 33.6434 0.316474 33.5192 0.213928 33.3704C0.111382 33.2215 0.043102 33.0519 0.0140015 32.8735C-0.0150991 32.6951 -0.00429616 32.5125 0.0456328 32.3388L1.93523 25.7285C1.98966 25.5362 2.09016 25.3601 2.22802 25.2154C2.36587 25.0707 2.53693 24.9618 2.72637 24.8981L8.61092 22.9366C8.82504 22.862 9.05588 22.8494 9.27683 22.9003C9.49779 22.9512 9.69986 23.0635 9.85976 23.2243C10.8013 24.1789 13.6913 24.9047 14.3712 25.0681C14.4661 25.0877 14.564 25.0877 14.6589 25.0681C15.3128 24.9047 18.255 24.1854 19.1835 23.2374C19.3431 23.0762 19.5449 22.9631 19.7657 22.911C19.9865 22.859 20.2175 22.8701 20.4323 22.9432L26.3169 24.9047C26.5058 24.9693 26.6763 25.0785 26.814 25.2231C26.9517 25.3676 27.0526 25.5432 27.108 25.735L28.9976 32.3454C29.0459 32.5228 29.0536 32.7088 29.0201 32.8896C28.9866 33.0704 28.9127 33.2413 28.804 33.3896C28.6953 33.5379 28.5546 33.6597 28.3923 33.7461C28.2299 33.8325 28.0502 33.8811 27.8665 33.8884Z" fill="#FFBA08"/>
<path d="M21.4326 11.4619H20.6872L19.4449 16.4115L14.7373 15.2476C14.6679 15.2385 14.5975 15.2385 14.5281 15.2476C14.4587 15.2376 14.3882 15.2376 14.3188 15.2476L9.57197 16.4311L8.30352 11.4619H7.54507C7.27699 13.8419 7.05469 16.3134 7.05469 17.6472C7.05469 18.5888 9.1862 20.4784 11.8343 20.7072C12.6842 20.7791 13.58 20.1776 14.4823 20.1776C15.3846 20.1776 16.2804 20.7791 17.0977 20.7072C19.713 20.4784 21.8772 18.5888 21.8772 17.6472C21.9295 16.333 21.6941 13.8615 21.4326 11.4619ZM16.3196 17.6472H12.6646C12.6298 17.6482 12.5958 17.6371 12.5683 17.6157C12.5408 17.5944 12.5215 17.5642 12.5138 17.5302C12.5061 17.4963 12.5104 17.4607 12.526 17.4296C12.5416 17.3985 12.5674 17.3737 12.5992 17.3595L14.0835 16.6207C14.2037 16.562 14.3354 16.5307 14.4692 16.5292C14.601 16.5299 14.7308 16.5612 14.8484 16.6207L16.3654 17.3792C16.396 17.3924 16.4213 17.4155 16.4374 17.4448C16.4534 17.474 16.4593 17.5078 16.454 17.5407C16.4488 17.5737 16.4327 17.604 16.4084 17.6268C16.3841 17.6496 16.3528 17.6637 16.3196 17.6668V17.6472Z" fill="#2B2D42"/>
</svg>
