<svg width="30" height="38" viewBox="0 0 30 38" fill="none" xmlns="http://www.w3.org/2000/svg">
<g clip-path="url(#clip0_273_314)">
<path d="M21.7726 11.1176C21.4441 10.9461 21.0994 10.8074 20.7437 10.7033C19.632 10.4409 17.2358 10.2613 16.1862 10.7033C15.6891 10.9035 15.1988 12.2224 14.6602 12.2224V7.65802C15.3507 7.94804 16.9803 7.41633 17.7054 7.65802C18.2095 7.83065 19.2246 9.17719 19.2246 9.17719C19.5008 7.58897 17.8435 6.22171 17.7054 6.14575C17.8297 6.20099 20.4675 7.47157 20.7437 9.17719C20.9168 9.90069 21.2709 10.5684 21.7726 11.1176Z" fill="#FFB5A7"/>
<path d="M14.6601 7.65789V12.2223C14.1284 12.2223 13.6381 10.9034 13.141 10.7031C12.0913 10.2612 9.68829 10.4407 8.58344 10.7031C7.98702 10.8972 7.41295 11.1541 6.87092 11.4696C6.95853 9.99511 7.49696 8.58309 8.41337 7.42461C9.32977 6.26614 10.5799 5.41712 11.9947 4.99243C11.9947 4.99243 13.7901 7.29881 14.6601 7.65789ZM13.6036 17.3184H14.6601V13.7415C14.1284 13.7415 13.6105 15.0052 13.141 15.2606C12.1397 15.8062 9.55019 15.8614 8.58344 15.2606C8.07935 14.9499 7.54074 13.6034 7.25762 12.8093C7.13332 12.4571 7.06427 12.2223 7.06427 12.2223H6.8433C6.8422 12.6307 6.86526 13.0389 6.91235 13.4445C7.25071 16.4207 8.81132 19.1829 11.2351 20.5087C11.8313 20.835 12.4741 21.0679 13.141 21.1992C13.596 21.2873 14.0585 21.3313 14.522 21.3304H14.6877V18.0711C14.4685 18.0714 14.2518 18.024 14.0526 17.9322C13.8535 17.8404 13.6767 17.7063 13.5346 17.5394C13.5199 17.5217 13.5099 17.5006 13.5055 17.478C13.501 17.4555 13.5023 17.4321 13.5092 17.4102C13.516 17.3882 13.5283 17.3684 13.5447 17.3523C13.5612 17.3363 13.5815 17.3247 13.6036 17.3184Z" fill="#FCD5CE"/>
<path d="M6.91214 13.4446C6.78217 13.5809 6.62568 13.6892 6.45231 13.7629C6.27893 13.8365 6.09232 13.8739 5.90396 13.8727C5.67988 13.8752 5.45886 13.8205 5.26176 13.7139C5.09704 13.6163 4.9544 13.4856 4.8429 13.33C4.73139 13.1743 4.65346 12.9972 4.61405 12.8099C4.57464 12.6226 4.57461 12.4291 4.61397 12.2417C4.65332 12.0543 4.7312 11.8772 4.84266 11.7216C4.95411 11.5659 5.09672 11.4351 5.26141 11.3375C5.4261 11.2399 5.60929 11.1776 5.79935 11.1546C5.9894 11.1315 6.18217 11.1483 6.36542 11.2037C6.54866 11.2591 6.71838 11.352 6.8638 11.4766V12.2154C6.85555 12.6257 6.87169 13.0362 6.91214 13.4446Z" fill="#FFB5A7"/>
<path d="M11.2349 20.5088C10.3184 20.8654 9.3737 21.1449 8.41066 21.3444C7.24366 21.4272 4.52987 20.7989 4.00506 19.7561C3.31453 18.3751 4.46772 15.8823 5.26183 13.714C5.45893 13.8206 5.67995 13.8753 5.90403 13.8728C6.09239 13.874 6.279 13.8366 6.45238 13.763C6.62575 13.6893 6.78224 13.581 6.91221 13.4447C7.25057 16.4209 8.81117 19.183 11.2349 20.5088ZM11.9945 4.99256C10.5798 5.41725 9.32963 6.26627 8.41322 7.42474C7.49681 8.58322 6.95838 9.99524 6.87077 11.4698C6.61466 11.2121 6.26732 11.0657 5.90403 11.0623C5.90403 9.77795 4.97181 7.14702 5.42066 5.9455C5.8695 4.74397 8.60401 2.95549 9.92983 3.07288C10.6273 3.16265 11.9945 4.99256 11.9945 4.99256Z" fill="#B56576"/>
<path d="M24.5486 12.4849C24.5471 12.8438 24.406 13.1881 24.155 13.4447C24.0259 13.5802 23.8705 13.688 23.6984 13.7616C23.5262 13.8352 23.341 13.8731 23.1538 13.8728C22.9514 13.874 22.7513 13.8307 22.5675 13.746C22.3837 13.6613 22.2208 13.5372 22.0903 13.3826C22.0903 13.1202 22.1318 12.8578 22.1387 12.5954V11.5319L22.2906 11.4007C22.4982 11.237 22.7485 11.1363 23.0116 11.1105C23.2748 11.0848 23.5399 11.1352 23.7752 11.2557C24.0056 11.3686 24.1999 11.5433 24.3365 11.7604C24.4731 11.9775 24.5466 12.2284 24.5486 12.4849Z" fill="#FFB5A7"/>
<path d="M25.3012 21.3443C24.8593 22.463 22.9948 23.9615 21.2201 25.1906L20.3155 24.8108L20.357 24.7694C20.4083 24.7238 20.4476 24.6663 20.4716 24.602C20.4956 24.5377 20.5036 24.4685 20.4947 24.4004C20.4859 24.3323 20.4605 24.2674 20.4209 24.2114C20.3812 24.1553 20.3285 24.1098 20.2672 24.0788C19.4565 23.5808 18.5983 23.1644 17.7053 22.8359C17.2029 22.7585 16.6938 22.733 16.1862 22.7599V21.1303C19.7562 20.3362 21.7104 16.9871 22.0902 13.3549C22.2207 13.5095 22.3836 13.6336 22.5674 13.7183C22.7512 13.803 22.9513 13.8463 23.1536 13.8452C23.3408 13.8454 23.5261 13.8075 23.6982 13.7339C23.8704 13.6603 24.0257 13.5525 24.1549 13.417C24.8109 16.1792 26.0193 19.5351 25.3012 21.3443ZM23.782 10.7032V11.2419C23.5466 11.1214 23.2816 11.071 23.0184 11.0967C22.7553 11.1224 22.505 11.2231 22.2974 11.3869L22.1455 11.5181V11.2557L21.8209 11.0899C21.3191 10.5407 20.9651 9.87304 20.792 9.14954C20.5227 7.44392 17.878 6.17334 17.7537 6.1181C17.8573 6.19406 19.5491 7.56132 19.2728 9.14954C19.2728 9.14954 18.2578 7.76848 17.7537 7.63037C17.0286 7.38868 15.4128 7.92039 14.7084 7.63037C13.8384 7.27129 12.043 4.96491 12.043 4.96491C12.043 4.96491 13.3757 0.455736 14.7084 0.027606C16.3312 -0.483388 19.19 2.51352 20.792 3.07285C21.8692 3.44574 24.583 2.2304 25.3495 3.07285C26.6132 4.52988 23.9132 8.76284 23.782 10.7032Z" fill="#B56576"/>
<path d="M14.6598 21.3374V24.3827C14.2574 24.3809 13.8721 24.2202 13.5876 23.9357C13.3031 23.6512 13.1424 23.2659 13.1406 22.8635V21.2131C13.5957 21.3012 14.0582 21.3452 14.5217 21.3443L14.6598 21.3374Z" fill="#FCD5CE"/>
<path d="M14.6602 24.3827V27.421L13.141 28.9402L8.99781 24.797L8.95638 24.7555C8.90324 24.7113 8.86202 24.6545 8.83647 24.5902C8.81091 24.526 8.80184 24.4564 8.81008 24.3877C8.81832 24.3191 8.8436 24.2536 8.88363 24.1972C8.92365 24.1409 8.97715 24.0954 9.03924 24.065C9.85231 23.5668 10.7128 23.1504 11.608 22.822C12.1104 22.7444 12.6195 22.719 13.1272 22.7461V22.822C13.1226 23.0259 13.1589 23.2287 13.2339 23.4183C13.309 23.6079 13.4213 23.7805 13.5642 23.926C13.7071 24.0715 13.8777 24.1869 14.066 24.2653C14.2542 24.3437 14.4562 24.3836 14.6602 24.3827ZM20.3571 24.7693L20.3156 24.8108L17.7054 27.421L16.1863 28.9402L14.6602 27.421V24.3827C15.0637 24.3827 15.4508 24.2228 15.7368 23.9381C16.0228 23.6534 16.1844 23.267 16.1863 22.8635V22.8013C16.6939 22.7744 17.203 22.7999 17.7054 22.8773C18.5984 23.2058 19.4566 23.6222 20.2673 24.1202C20.3211 24.1527 20.367 24.1967 20.4016 24.2492C20.4362 24.3016 20.4586 24.3611 20.4672 24.4234C20.4758 24.4856 20.4704 24.549 20.4513 24.6088C20.4323 24.6687 20.4001 24.7235 20.3571 24.7693Z" fill="#4A4E69"/>
<path d="M28.1531 36.7569L18.3475 37.993C17.9279 38.0439 17.5026 37.9694 17.1253 37.7789L15.6199 37.0262C15.3223 36.88 14.9951 36.8039 14.6635 36.8039C14.3319 36.8039 14.0048 36.88 13.7071 37.0262L12.2018 37.7789C11.8244 37.9694 11.3992 38.0439 10.9795 37.993L1.17398 36.7638C0.970347 36.7389 0.775224 36.6672 0.603813 36.5545C0.432403 36.4418 0.289334 36.291 0.185752 36.1139C0.0821698 35.9368 0.0208714 35.7382 0.00663204 35.5335C-0.00760732 35.3288 0.0255968 35.1237 0.103658 34.9339C1.02207 32.669 2.7553 28.7191 4.01898 27.4278C4.86143 26.5854 7.47164 25.4391 9.01153 24.8176L13.1547 28.9608L14.6739 27.4417L16.2 28.9608L17.7191 27.4417L20.3294 24.8314L21.234 25.2112C22.7255 25.8534 24.6314 26.7511 25.315 27.4417C26.5787 28.7053 28.3119 32.6828 29.2372 34.9477C29.31 35.1375 29.3387 35.3413 29.3211 35.5437C29.3035 35.7462 29.2401 35.942 29.1356 36.1163C29.0312 36.2906 28.8884 36.4389 28.7182 36.5499C28.548 36.6609 28.3547 36.7317 28.1531 36.7569Z" fill="#22223B"/>
<path d="M22.1178 11.5458V11.2834L21.7933 11.1177C21.4647 10.9462 21.1201 10.8074 20.7644 10.7033C19.6526 10.4409 17.2565 10.2614 16.2069 10.7033C15.7097 10.9036 15.2194 12.2225 14.6808 12.2225C14.1422 12.2225 13.6588 10.9036 13.1616 10.7033C12.112 10.2614 9.70897 10.4409 8.60412 10.7033C8.0077 10.8974 7.43363 11.1543 6.8916 11.4698V12.2087H7.11257C7.11257 12.2087 7.18163 12.4435 7.30592 12.7957C7.58904 13.5898 8.12765 14.9363 8.63174 15.2471C9.59849 15.8478 12.188 15.7926 13.1893 15.2471C13.6588 14.9916 14.1767 13.7279 14.7084 13.7279C15.2401 13.7279 15.758 14.9916 16.2345 15.2471C17.2358 15.7926 19.8253 15.8478 20.792 15.2471C21.2271 14.9777 21.6897 13.935 21.9866 13.1755L22.1869 12.6092V12.2363C22.1455 11.9946 22.1386 11.753 22.1178 11.5458ZM13.6312 13.5483C13.4636 14.0303 13.1588 14.4527 12.7542 14.7637C11.8703 15.1711 9.64683 15.323 8.84581 14.7637C8.48466 14.3748 8.2153 13.91 8.05755 13.4033C7.89981 12.8966 7.85769 12.3609 7.93431 11.8358C8.1011 11.6047 8.34673 11.4426 8.62484 11.3801C9.68826 11.166 12.0775 10.8138 12.9752 11.3801C13.3135 11.6686 13.5547 12.0544 13.6657 12.4849C13.727 12.838 13.7152 13.1999 13.6312 13.5483ZM20.4882 14.7637C19.7424 15.3921 17.4637 15.1711 16.5729 14.7637C16.2054 14.5247 15.9232 14.1754 15.7669 13.7659C15.6105 13.3565 15.5881 12.908 15.7028 12.4849C15.8082 12.052 16.0503 11.6645 16.3933 11.3801C17.3394 10.8415 19.701 11.0693 20.7437 11.3801C21.0166 11.4544 21.2585 11.6141 21.4342 11.8358C21.7173 12.5333 21.0751 14.2665 20.4882 14.7637Z" fill="#3A0CA3"/>
<path d="M13.631 13.5483C13.4634 14.0302 13.1586 14.4526 12.7541 14.7636C11.8702 15.171 9.64668 15.3229 8.84566 14.7636C8.48451 14.3748 8.21515 13.9099 8.0574 13.4032C7.89966 12.8965 7.85754 12.3609 7.93415 11.8357C8.10095 11.6046 8.34657 11.4425 8.62469 11.38C9.68811 11.1659 12.0774 10.8138 12.975 11.38C13.3134 11.6685 13.5545 12.0543 13.6656 12.4848C13.7268 12.838 13.7151 13.1999 13.631 13.5483Z" fill="#FCD5CE"/>
<path d="M20.4879 14.7636C19.7422 15.392 17.4634 15.171 16.5726 14.7636C16.2052 14.5246 15.923 14.1753 15.7666 13.7658C15.6103 13.3563 15.5879 12.9078 15.7025 12.4848C15.8079 12.0518 16.0501 11.6644 16.3931 11.38C17.3391 10.8413 19.7007 11.0692 20.7434 11.38C21.0163 11.4543 21.2583 11.614 21.434 11.8357C21.7171 12.5331 21.0749 14.2664 20.4879 14.7636Z" fill="#FFB5A7"/>
<path d="M22.1386 12.5952C22.1386 12.8576 22.1386 13.12 22.0903 13.3824C21.745 17.0284 19.7563 20.3637 16.1862 21.1578C15.6855 21.2722 15.1738 21.3324 14.6602 21.3374V18.078C14.883 18.0796 15.1034 18.0315 15.3053 17.9371C15.5072 17.8427 15.6854 17.7045 15.8272 17.5325C15.8429 17.5132 15.8529 17.4897 15.8558 17.4649C15.8587 17.4401 15.8544 17.415 15.8435 17.3925C15.8327 17.37 15.8156 17.3511 15.7944 17.338C15.7731 17.3249 15.7485 17.3181 15.7236 17.3185H14.6602V13.7415C15.1988 13.7415 15.7098 15.0052 16.1862 15.2607C17.1875 15.8062 19.777 15.8614 20.7437 15.2607C21.1788 14.9914 21.6414 13.9487 21.9384 13.1891L22.1386 12.5952Z" fill="#FFB5A7"/>
<path d="M16.1862 21.158V22.8636C16.1844 23.2671 16.0228 23.6535 15.7368 23.9382C15.4508 24.2229 15.0637 24.3828 14.6602 24.3827V21.3375C15.1738 21.3326 15.6855 21.2724 16.1862 21.158Z" fill="#FFB5A7"/>
<path d="M15.8272 17.5326C15.6846 17.7012 15.5069 17.8368 15.3065 17.9297C15.1062 18.0227 14.888 18.0709 14.6671 18.0709C14.4462 18.0709 14.228 18.0227 14.0276 17.9297C13.8273 17.8368 13.6496 17.7012 13.507 17.5326C13.4902 17.513 13.4792 17.4892 13.4753 17.4638C13.4713 17.4383 13.4745 17.4123 13.4846 17.3886C13.4947 17.3649 13.5111 17.3445 13.5322 17.3297C13.5532 17.3148 13.578 17.3062 13.6037 17.3047H15.7236C15.7513 17.3013 15.7794 17.3068 15.8037 17.3205C15.8281 17.3341 15.8474 17.3552 15.859 17.3806C15.8705 17.406 15.8737 17.4345 15.868 17.4618C15.8622 17.4891 15.848 17.5139 15.8272 17.5326Z" fill="#F72585"/>
</g>
<defs>
<clipPath id="clip0_273_314">
<rect width="29.3269" height="38" fill="white"/>
</clipPath>
</defs>
</svg>
